<svg style="position: absolute; width: 0; height: 0;" width="0" height="0" version="1.1" xmlns="http://www.w3.org/2000/svg" xmlns:xlink="http://www.w3.org/1999/xlink">
<defs>

<symbol id="icon-arrow-down" viewBox="0 0 1024 1024">
	<title>arrow-down</title>
	<path class="path1" d="M76.001 274.995q7.004-7.997 16.998-10.496t19.497 0 16.497 10.496l382.996 419 382.996-419q7.004-7.997 16.497-10.496t19.497 0 16.998 10.496q10.998 10.998 10.998 26.501t-10.998 26.501l-408.003 446.003q-10.998 10.998-27.996 10.004-16.998 1.004-27.996-10.004l-408.003-446.003q-10.998-10.998-10.998-26.501t10.998-26.501z"></path>
</symbol>
<symbol id="icon-arrow-left" viewBox="0 0 1024 1024">
	<title>arrow-left</title>
	<path class="path1" d="M760.996 141.005l-419 382.996 419 382.996q10.998 10.998 10.998 26.501t-10.998 26.501-26.501 10.998-26.501-10.998l-446.003-408.003q-10.998-10.998-10.004-27.996-1.004-16.998 10.004-27.996l446.003-408.003q10.998-10.998 26.501-10.998t26.501 10.998 10.998 26.501-10.998 26.501z"></path>
</symbol>
<symbol id="icon-arrow-right" viewBox="0 0 1024 1024">
	<title>arrow-right</title>
	<path class="path1" d="M763.003 551.997l-448 408.996q-10.998 10.998-27.003 10.998t-27.003-10.998-10.998-26.501 10.998-26.501l422.001-384-422.001-384q-10.998-10.998-10.998-26.501t10.998-26.501 27.003-10.998 27.003 10.998l448 408.996q12.001 10.998 10.998 27.996 0 4.997-1.004 10.004t-3.502 10.004-6.502 7.997z"></path>
</symbol>
<symbol id="icon-arrow-up" viewBox="0 0 1024 1024">
	<title>arrow-up</title>
	<path class="path1" d="M947.999 772.997q-10.998 10.998-26.501 10.998t-26.501-10.998l-382.996-419-382.996 419q-10.998 10.998-26.501 10.998t-26.501-10.998-10.998-26.501 10.998-26.501l408.003-446.003q10.998-10.998 27.996-10.004 4.997-1.004 10.004 0t9.503 3.502 8.499 6.502l408.003 446.003q4.997 6.001 7.997 13.005t3 13.998-3 13.998-7.997 12.001z"></path>
</symbol>
<symbol id="icon-blocked" viewBox="0 0 1024 1024">
	<title>blocked</title>
	<path class="path1" d="M512 20.48c-271.462 0-491.52 220.058-491.52 491.52s220.058 491.52 491.52 491.52c271.514 0 491.52-220.058 491.52-491.52s-220.006-491.52-491.52-491.52zM776.499 247.603l-0.102-0.102c0 0.051 0.102 0.102 0.102 0.102zM138.035 512c0-206.541 167.424-373.965 373.965-373.965 89.805 0 172.237 31.642 236.749 84.378l-526.285 526.234c-52.787-64.461-84.429-146.842-84.429-236.646zM247.501 776.397l0.102 0.102c-0.051-0.051-0.051-0.051-0.102-0.102zM512 886.016c-89.805 0-172.186-31.693-236.646-84.429l526.131-526.234c52.787 64.461 84.48 146.842 84.48 236.646 0.051 206.541-167.475 374.016-373.965 374.016z"></path>
</symbol>
<symbol id="icon-bubble" viewBox="0 0 1024 1024">
	<title>bubble</title>
	<path class="path1" d="M25.999 973.005q-19.999 0-24.996-18.995-1.997-7.997 1.004-16.005t10.004-13.005q97.997-57.999 135.997-163-71.004-53.996-109.496-125.501t-38.502-150.497 39.004-150.999q13.005-22.999 29-44.503t35-41.001 42.004-36.495q68.004-53.996 156.498-82.504t184.504-28.498q48.998 0 95.498 7.496t89.498 21.504 82.995 34.499 74.004 47.503q13.005 10.004 25.498 21.504t24.003 22.999 21.504 24.504 18.504 25.999 15.503 27.003q39.997 71.997 39.997 151.501t-39.997 151.501q-36.997 68.997-105.001 121.999-68.997 53.002-157 81.5t-184.996 28.498q-25.999 0-51.999-1.997t-51.497-6.502-50.504-10.496q-54.999 36.004-112.005 65.004-114.995 56.996-193.997 56.996zM486.001 153.999q-59.003 0-114.995 12.001t-103.997 33.495-88.003 51.999-68.004 67-44.001 79.503-16.005 88.003q0 35 9.503 68.997t27.505 65.495 44.503 59.505 59.505 51.999q15.002 10.004 10.004 27.003-19.999 77.998-80.998 143.002 93-32 192-100.004 10.004-7.004 21.002-4.004 74.004 21.002 152.003 21.002 117.996 0 218.501-44.503t158.996-120.996 58.501-167.496q0-53.996-21.996-104.499t-62.505-91.505-94.003-71.997-120.003-47.503-137.503-16.497z"></path>
</symbol>
<symbol id="icon-calendar" viewBox="0 0 1024 1024">
	<title>calendar</title>
	<path class="path1" d="M896 128h-128v-32q0-13.998-9.001-22.999t-22.999-9.001-22.999 9.001-9.001 22.999v32h-384v-32q0-13.998-9.001-22.999t-22.999-9.001-22.999 9.001-9.001 22.999v32h-128q-27.996 0-45.998 16.497t-18.002 41.503v716.001q0 16.005 7.997 29.501t22.497 21.002 33.495 7.496h768q18.995 0 33.495-7.496t22.497-21.002 7.997-29.501v-716.001q0-16.005-7.997-29.501t-22.497-21.002-33.495-7.496zM192 192h64v32q0 13.998 9.001 22.999t22.999 9.001 22.999-9.001 9.001-22.999v-32h384v32q0 13.998 9.001 22.999t22.999 9.001 22.999-9.001 9.001-22.999v-32h64q29 0 46.5 17.5t17.5 46.5v64h-768v-64q0-29 17.5-46.5t46.5-17.5zM832 896h-640q-29 0-46.5-17.5t-17.5-46.5v-448h768v448q0 29-17.5 46.5t-46.5 17.5zM256 480h-64q-13.998 0-22.999 9.001t-9.001 22.999 9.001 22.999 22.999 9.001h64q13.998 0 22.999-9.001t9.001-22.999-9.001-22.999-22.999-9.001zM448 480h-64q-13.998 0-22.999 9.001t-9.001 22.999 9.001 22.999 22.999 9.001h64q13.998 0 22.999-9.001t9.001-22.999-9.001-22.999-22.999-9.001zM640 480h-64q-13.998 0-22.999 9.001t-9.001 22.999 9.001 22.999 22.999 9.001h64q13.998 0 22.999-9.001t9.001-22.999-9.001-22.999-22.999-9.001zM832 480h-64q-13.998 0-22.999 9.001t-9.001 22.999 9.001 22.999 22.999 9.001h64q13.998 0 22.999-9.001t9.001-22.999-9.001-22.999-22.999-9.001zM256 608h-64q-13.998 0-22.999 9.001t-9.001 22.999 9.001 22.999 22.999 9.001h64q13.998 0 22.999-9.001t9.001-22.999-9.001-22.999-22.999-9.001zM448 608h-64q-13.998 0-22.999 9.001t-9.001 22.999 9.001 22.999 22.999 9.001h64q13.998 0 22.999-9.001t9.001-22.999-9.001-22.999-22.999-9.001zM640 608h-64q-13.998 0-22.999 9.001t-9.001 22.999 9.001 22.999 22.999 9.001h64q13.998 0 22.999-9.001t9.001-22.999-9.001-22.999-22.999-9.001zM832 608h-64q-13.998 0-22.999 9.001t-9.001 22.999 9.001 22.999 22.999 9.001h64q13.998 0 22.999-9.001t9.001-22.999-9.001-22.999-22.999-9.001zM256 736h-64q-13.998 0-22.999 9.001t-9.001 22.999 9.001 22.999 22.999 9.001h64q13.998 0 22.999-9.001t9.001-22.999-9.001-22.999-22.999-9.001zM448 736h-64q-13.998 0-22.999 9.001t-9.001 22.999 9.001 22.999 22.999 9.001h64q13.998 0 22.999-9.001t9.001-22.999-9.001-22.999-22.999-9.001zM640 736h-64q-13.998 0-22.999 9.001t-9.001 22.999 9.001 22.999 22.999 9.001h64q13.998 0 22.999-9.001t9.001-22.999-9.001-22.999-22.999-9.001zM832 736h-64q-13.998 0-22.999 9.001t-9.001 22.999 9.001 22.999 22.999 9.001h64q13.998 0 22.999-9.001t9.001-22.999-9.001-22.999-22.999-9.001z"></path>
</symbol>
<symbol id="icon-checkmark" viewBox="0 0 1024 1024">
	<title>checkmark</title>
	<path class="path1" d="M424.704 870.4c-22.272 0-43.366-10.394-56.883-28.314l-182.989-241.562c-23.808-31.437-17.613-76.186 13.824-99.994 31.488-23.859 76.186-17.613 99.994 13.824l120.371 158.925 302.694-485.939c20.838-33.434 64.87-43.674 98.355-22.835 33.434 20.787 43.674 64.87 22.784 98.304l-357.53 573.952c-12.442 20.019-33.894 32.563-57.395 33.587-1.075 0.051-2.15 0.051-3.226 0.051z"></path>
</symbol>
<symbol id="icon-clock" viewBox="0 0 1024 1024">
	<title>clock</title>
	<path class="path1" d="M798.996 822.999q71.997-59.003 112.998-143.002t41.001-178.995q0-91.996-39.997-176.005l1.004-1.997q15.002-15.002 24.504-33.004t12.503-37.499 0-39.004-12.503-38.001-24.504-33.495q-39.004-36.997-94.003-36.997-48.005 0-85.002 30.003-19.999-10.998-40.499-19.999t-42.998-16.497-45.005-12.503-46.5-7.496-48.005-2.499q-118.999 0-222.996 59.003-38.001-30.003-85.002-30.003-27.003 0-51.497 9.503t-42.496 27.505q-39.004 38.001-39.004 91.003t39.004 89.999l1.004 1.997q-39.997 83.999-39.997 176.005 0 96 41.503 180.5t114.504 143.503l-88.996 85.996q-7.997 7.997-7.997 19.497t7.997 20.5q4.004 4.004 9.503 6.001t11.5 1.997q12.001 0 21.002-7.997l94.996-91.996q108.001 68.004 237.005 68.004 129.997 0 240.005-68.997l96 93q3 1.997 6.502 4.004t7.004 3 7.496 1.004q12.001-1.004 21.002-7.997 4.997-6.001 7.004-13.005t0-14.5-7.004-12.503zM871.997 181.996q18.995 18.002 21.504 43.5t-11.5 45.496q-18.995-29-42.998-54.497t-51.999-46.5q7.004-4.004 14.5-5.499t15.002-1.997 15.002 0.502 15.002 3.502 13.998 6.502 11.5 9.001zM150.999 181.996q16.998-16.005 41.001-18.995t45.005 7.004q-27.996 21.002-51.999 46.5t-42.998 54.497q-15.002-19.999-12.001-45.496t21.002-43.5zM512 870.001q-103.997 0-192-49.5t-138.998-134.502-50.995-184.504 50.995-184.504 138.998-134.502 192-49.5 192 49.5 138.998 134.502 50.995 184.003q0 144.998-102.001 251.003-103.004 106.004-251.003 117.002-15.002 1.004-29 1.004zM658.995 472.996h-117.996v-198.001q0-12.001-8.499-20.5t-20.5-8.499-21.002 8.499-9.001 20.5v225.997q0 12.001 9.001 20.5t21.002 8.499h146.995q7.997 0 14.5-4.004t10.496-10.496 4.004-13.998-4.004-13.998-10.496-10.496-14.5-4.004z"></path>
</symbol>

<symbol id="icon-credicard" viewBox="0 0 1024 1024">
	<title>credicard</title>
	<path class="path1" d="M880.998 164.004h-737.997q-32 0-54.999 23.501t-22.999 56.504v560.005q0 33.004 22.999 56.504t54.999 23.501h737.997q32 0 54.999-23.501t22.999-56.504v-560.005q0-21.996-10.496-40.499t-28.498-29-39.004-10.496zM900.997 798.003q0 24.003-13.005 27.003-6.001 1.997-16.005 1.997h-720.005q-18.002 0-23.501-5.499t-5.499-23.501v-403.999h778.004v403.999zM900.997 336.005h-778.004v-85.996q0-12.001 2.499-18.002t7.997-8.499 18.504-2.499h720.005q7.004 0 10.998 0.502t7.496 1.997 5.499 3 3 4.997 1.495 7.997 0.502 10.496v85.996zM382.003 682.004h-202.004v57.999l202.998-4.997zM670.996 682.004h-260.004v57.999h260.004v-57.999z"></path>
</symbol>
<symbol id="icon-cross" viewBox="0 0 1024 1024">
	<title>cross</title>
	<path class="path1" d="M734.669 673.382l-141.21-161.382 141.21-161.382c24.013-24.013 24.013-62.925 0-86.886-24.013-23.962-62.925-23.962-86.886 0l-135.782 155.187-135.731-155.136c-24.013-24.013-62.925-24.013-86.886 0-23.962 24.013-23.962 62.925 0 86.886l141.158 161.331-141.21 161.382c-23.962 24.013-23.962 62.822 0 86.784 24.013 24.013 62.925 24.013 86.886 0l135.782-155.085 135.731 155.085c24.013 24.013 62.925 24.013 86.886 0s24.013-62.771 0.051-86.784z"></path>
</symbol>
<symbol id="icon-edit" viewBox="0 0 1024 1024">
	<title>edit</title>
	<path class="path1" d="M818.995 448q-7.997 0-13.998 4.004t-10.004 10.496-4.004 14.5v356.997q0 29-19.497 50.002t-47.503 21.002h-519.997q-10.004 0-19.999-2.499t-18.995-7.496-16.998-11.5-13.998-13.998-9.503-16.998-3.502-18.504v-522.004q0-27.996 27.003-53.504t56.003-25.498h297.001q4.997 0 9.001-1.495t7.997-4.004 6.502-6.001 4.004-7.496 1.495-9.001q0-12.001-8.499-19.999t-20.5-7.997h-297.001q-57.999 0-98.499 39.004t-40.499 96v522.004q0 36.997 18.504 66.499t50.002 45.005 70.502 15.503h519.997q56.996 0 89.999-34.499t33.004-92.498v-356.997q0-12.001-7.997-20.5t-19.999-8.499zM934.001 132.004l-42.998-42.998q-24.003-24.003-60.498-24.003t-60.498 24.003l-80.998 94.996-429.005 411.003v12.001l-53.996 182.999 39.997 35 173.005-61 1.997 1.004h7.997l409.999-429.998 94.996-77.998q16.005-16.005 21.996-39.004t0-46.5-21.996-39.496zM281.999 749.998l25.999-80.998 50.002 50.995zM408.996 690.002l-74.004-74.004 382.996-382.003 71.997 71.997zM893 213.002l-56.996 57.999-82.995-83.999 56.996-56.996q9.001-7.997 20.5-7.997t20.5 7.997l42.004 42.998q9.001 7.997 9.001 19.999t-9.001 19.999z"></path>
</symbol>
<symbol id="icon-ellipsis" viewBox="0 0 1024 1024">
	<title>ellipsis</title>
	<path class="path1" d="M176.005 624.005q-30.996 0-56.504-15.002t-40.499-41.001-15.002-56.003q0-45.998 32.502-79.002t79.002-33.004 79.503 33.004 33.004 79.002q0 30.003-15.002 56.003t-41.001 41.001-56.003 15.002zM512 624.005q-22.999 0-43.5-9.001t-35.502-24.003-24.003-35.502-9.001-43.5q0-45.998 32.502-79.002t79.002-33.004 79.503 33.004 33.004 79.002q0 30.003-15.002 56.003t-41.001 41.001-56.003 15.002zM848.005 624.005q-47.002 0-79.503-33.004t-32.502-79.002 32.502-79.002 79.503-33.004q18.002 0 35 5.499t30.996 16.005 24.003 24.504 16.005 30.996 6.001 35q0 45.998-33.004 79.002t-79.002 33.004z"></path>
</symbol>
<symbol id="icon-eye" viewBox="0 0 1024 1024">
	<title>eye</title>
	<path class="path1" d="M512 225.28c-335.923 0-512 247.45-512 286.72s176.077 286.72 512 286.72 512-247.45 512-286.72-176.077-286.72-512-286.72zM512 732.57c-125.645 0-227.533-98.765-227.533-220.57s101.888-220.57 227.533-220.57c125.696 0 227.584 98.765 227.584 220.57s-101.888 220.57-227.584 220.57zM512 512c-20.787-22.835 33.997-110.234 0-110.234-62.822 0-113.766 49.357-113.766 110.234s50.944 110.285 113.766 110.285c62.874 0 113.818-49.408 113.818-110.285 0-27.955-96.051 19.456-113.818 0z"></path>
</symbol>
<symbol id="icon-good" viewBox="0 0 1024 1024">
	<title>good</title>
	<path class="path1" d="M967.997 574.003q36.004-41.001 36.004-111.002 0-19.999-4.495-37.499t-12.503-31.498q-4.997-7.997-12.503-15.002t-15.503-11.5-17.5-7.004-19.497-2.499h-134.001q109.005-199.004 53.996-297.001-16.998-30.996-46.5-45.998t-57.498-15.002q-4.997 0-9.503 1.495t-7.997 4.495-5.499 7.004-3 9.001q-1.997 19.999-10.004 42.004t-20.5 44.503-29 45.005-36.997 45.005-44.503 44.503q-120.003 108.001-271.002 158.996-9.001-18.995-27.996-31.498t-41.001-12.503h-153.999q-32 0-54.497 22.497t-22.497 54.497v461.005q0 32 22.497 54.497t54.497 22.497h153.999q15.002 0 29.501-6.502t24.996-17.5 16.497-24.996q47.002 6.001 82.995 15.503t51.497 16.497 40.499 19.999q30.003 16.998 49.5 24.504t67 15.503 113.5 7.997q27.996 0 53.002-7.004t45.005-19.999q39.004-25.999 48.005-68.997 30.996-13.005 51.999-56.003 21.996-45.005 21.996-89.999v-7.997q0-3-1.004-6.001 7.004-4.997 13.005-11.5t11.5-14.5 9.503-18.002q22.999-44.001 22.999-93 0-33.004-12.001-53.996-1.997-1.997-1.997-3h-1.004zM230.001 921.999h-152.996q-4.997 0-10.004-2.499t-8.499-5.499-5.499-7.997-1.997-10.004v-461.005q0-10.004 7.496-17.5t18.504-7.496h152.996q10.998 0 18.504 7.496t7.496 17.5v461.005q0 19.999-18.995 24.996-4.004 0-7.004 1.004zM938.998 525.998q-10.998 21.002-18.995 21.002-10.998 0-18.504 7.496t-7.496 18.002 7.496 18.002 18.504 7.496q4.004 0 6.001 4.004 4.997 10.004 4.997 29 0 36.997-16.005 71.004-13.998 27.996-24.996 27.996-7.004 0-13.005 3t-9.503 9.001-3.502 13.005q0 4.997 1.495 9.001t4.004 7.004 6.502 6.001q1.004 13.998-5.499 41.001t-20.5 47.002q-12.001 16.998-21.002 16.998-7.004 0-13.005 3t-9.503 9.001-3.502 13.005q0 32-28.498 48.998t-67.502 16.998q-59.996 0-102.001-6.502t-59.505-13.496-44.503-21.996q-27.003-13.998-44.503-21.996t-57.498-18.504-91.996-17.5v-419q167.004-54.999 298.004-173.005 125-112.998 152.996-225.997 27.003 7.997 39.997 30.996 7.004 13.998 9.503 33.495t-1.495 53.002-25.498 84.5-59.505 114.002q-3 6.001-3 13.005t3 13.005q7.004 13.005 21.996 13.005h187.003l1.997 1.997q1.997 0 3.502 1.004t3 2.499 2.499 3 3 3.502q4.004 7.004 6.502 17.5t2.499 23.501q0 35-13.998 62.996z"></path>
</symbol>
<symbol id="icon-heart" viewBox="0 0 1024 1024">
	<title>heart</title>
	<path class="path1" d="M902.001 484.004l-347.996 443.996q-29 29-42.496 29t-42.496-29l-347.003-443.996q-27.003-42.998-41.503-81.5t-14.5-86.497q0-48.998 16.497-94.505t45.496-80.005 71.004-55.501 89.999-21.002q129.004 0 222.003 126.003 45.998-57.999 102.001-91.996t121.999-33.997q64 0 115.497 35.502t79.503 92.498 27.996 123.003q0 33.997-7.004 64.502t-18.995 54.497-30.003 48.998zM734.996 120.996q-54.999 0-117.002 47.503t-106.004 106.496q-27.996-36.997-62.003-70.001t-78.5-59.003-82.504-24.996q-73.001 0-120.504 57.999t-47.503 137.001q0 30.003 3.502 48.005t15.503 42.496 36.997 63.498l306.995 390.001q19.999 19.999 26.501 19.999t29.501-21.002l306.995-387q35-45.998 45.496-77.998t10.496-77.998q0-79.002-48.497-137.001t-119.501-57.999z"></path>
</symbol>
<symbol id="icon-help" viewBox="0 0 1024 1024">
	<title>help</title>
	<path class="path1" d="M527.002 48.998q91.996 0 174.5 35t142.5 94.996 95.498 143.002 35.502 173.496-35.502 173.496-95.498 143.002-142.5 94.996-173.998 35-173.998-35-142.5-94.996-95.498-143.002-35.502-173.496 35.502-173.496 95.498-143.002 142.5-94.996 173.496-35zM527.002 109.998q-48.998 0-97.004 13.005t-90.501 38.001-77.496 59.996q-36.004 36.004-62.505 80.497t-41.503 94.505-15.002 99q0 74.004 32.502 147.497t86.497 127.498q53.002 53.002 121.498 80.998t143.503 27.996q74.004 0 147.497-32t127.498-86.999q53.002-53.002 81.5-120.996t28.498-144.005q0-48.005-15.002-96.502t-41.503-89.999-62.505-77.998-77.998-62.996-90.501-42.004-97.495-15.503zM355 394.998q1.997-71.004 12.001-96 13.998-35 39.997-59.003 29-24.996 64.502-37.499t74.496-12.503q74.998 0 131 50.002 24.003 21.002 35.502 51.999t11.5 68.997q0 12.001-1.495 22.999t-4.004 21.002-7.496 19.999q-18.995 39.997-50.995 71.004-44.001 42.004-59.003 59.996-4.004 6.001-7.997 12.503t-7.496 13.998-5.499 16.497q-7.004 21.996-7.004 24.996h-77.005q0-4.004 0.502-7.997t1.004-6.502 3-10.004 3.502-12.503q7.997-29 22.999-50.995 6.001-7.004 13.998-16.497t18.995-21.504 24.003-25.999q41.001-42.004 53.002-62.003 6.001-9.001 9.001-23.501t3-33.495q0-38.001-27.003-67t-79.002-29q-115.999 0-115.999 138.004h-71.997zM574.003 792.003h-80.005v-88.996h80.005v88.996z"></path>
</symbol>
<symbol id="icon-homepage" viewBox="0 0 1024 1024">
	<title>homepage</title>
	<path class="path1" d="M946.995 426.998l-376.996-298.004q-24.003-18.995-57.498-18.995t-57.498 18.995l-376.996 298.004q-10.004 7.997-11.5 19.999t6.001 21.996 19.497 11.5 21.996-6.502l12.001-10.004v361.001q0 36.004 32 62.505t68.997 26.501h594.995q35 0 56.003-24.504t21.002-64.502v-359.004l10.998 7.997q7.997 6.001 18.995 6.001 13.998 0 22.999-10.998 7.997-10.004 6.502-21.996t-11.5-19.999zM483 853.996v-164.004q0-13.005 29.501-13.005t29.501 13.005v164.004h-59.003zM839.997 824.996q0 15.002-4.495 21.996t-13.496 7.004h-219.996v-164.004q0-18.995-9.503-34.499t-30.003-26.501-50.504-10.998q-42.004 0-65.495 21.504t-23.501 50.504v163l1.004 1.004h-196.997q-13.998 0-27.996-9.503t-13.998-19.497v-408.003l306.002-240.998q7.997-7.004 21.002-7.004t21.002 7.004l306.995 242.995v405.996z"></path>
</symbol>
<symbol id="icon-image" viewBox="0 0 1024 1024">
	<title>image</title>
	<path class="path1" d="M848.005 64h-672q-22.999 0-44.001 9.001t-36.004 24.003-23.501 35.502-8.499 43.5v672q0 45.998 32.502 79.002t79.503 33.004h672q45.998 0 79.002-33.004t33.004-79.002v-672q0-45.998-33.004-79.002t-79.002-33.004zM903.997 848.005q0 22.999-16.497 39.496t-39.496 16.497h-672q-22.999 0-39.496-16.497t-16.497-39.496v-672q0-10.998 4.495-21.504t12.001-18.002 17.5-12.001 21.996-4.495h672q22.999 0 39.496 16.497t16.497 39.496v672zM835 545.004l-83.999-56.003q-7.997-4.997-16.998-4.495t-16.005 5.499l-132.997 106.998-196.997-135.997h-1.004l-7.004-3q-1.004-1.004-1.997-1.004h-1.004q-1.997-1.004-7.004-1.004 0 1.004-1.997 0h-1.004q-1.004 1.004-3 1.997h-1.004q-4.997 1.004-7.004 3l-167.997 112.005q-9.001 6.001-11.5 17.5t3.502 21.504q4.004 4.997 10.496 8.499t13.496 3.502q4.004 0 7.997-1.004t7.004-4.004l152.003-100.997 432.998 297.001q7.004 4.997 16.005 4.997 13.998 0 22.999-12.001 6.001-10.004 4.004-21.504t-10.998-17.5l-202.998-138.998 103.997-82.995 67 44.001q7.004 4.997 16.005 4.997 15.002 0 22.999-12.001 6.001-10.004 4.004-21.504t-12.001-17.5zM582.001 428.001q51.999 0 88.996-36.997t36.997-88.996-36.997-88.996-88.996-36.997-88.996 36.997-36.997 88.996 36.997 88.996 88.996 36.997zM582.001 231.997q18.995 0 35 9.503t25.498 25.498 9.503 35q0 29-20.5 49.5t-49.5 20.5q-18.995 0-35.502-9.503t-25.498-25.498-9.001-35q0-29 20.5-49.5t49.5-20.5z"></path>
</symbol>
<symbol id="icon-information" viewBox="0 0 1024 1024">
	<title>information</title>
	<path class="path1" d="M512 981.002q-94.996 0-181.996-37.499t-149.504-100.004-100.004-149.504-37.499-181.996 37.499-181.996 100.004-149.504 149.504-100.004 181.996-37.499 181.996 37.499 149.504 100.004 100.004 149.504 37.499 181.996q0 76.001-24.003 147.497t-67 129.495-100.997 100.997-129.495 67-147.497 24.003zM512 94.003q-112.998 0-209.5 56.003t-152.504 152.504-56.003 209.5q0 56.996 15.002 111.002t42.004 99.502 65.997 84.5 84.5 65.495 99.502 42.004 111.002 15.503q112.998 0 209.5-56.003t152.504-152.504 56.003-209.5-56.003-209.5-152.504-152.504-209.5-56.003zM501.002 825.999q-10.004 0-18.504-4.997t-13.496-13.496-4.997-18.504v-399.002q0-15.002 10.998-25.999t25.999-10.998h21.996q15.002 0 25.999 10.998t10.998 25.999v399.002q0 10.004-4.997 18.504t-13.496 13.496-18.504 4.997h-21.996zM512 294.001q-6.001 0-12.503-1.997t-11.5-4.997-9.503-7.496-7.496-9.503-4.997-10.998-1.997-13.005q0-19.999 13.998-33.997t33.997-13.998 33.997 13.998 13.998 33.997-13.998 33.997-33.997 13.998z"></path>
</symbol>
<symbol id="icon-list" viewBox="0 0 1024 1024">
	<title>list</title>
	<path class="path1" d="M819.2 460.8h-614.4c-28.262 0-51.2 22.938-51.2 51.2s22.938 51.2 51.2 51.2h614.4c28.314 0 51.2-22.938 51.2-51.2s-22.886-51.2-51.2-51.2zM204.8 358.4h614.4c28.314 0 51.2-22.938 51.2-51.2s-22.886-51.2-51.2-51.2h-614.4c-28.262 0-51.2 22.938-51.2 51.2s22.938 51.2 51.2 51.2zM819.2 665.6h-614.4c-28.262 0-51.2 22.886-51.2 51.2s22.938 51.2 51.2 51.2h614.4c28.314 0 51.2-22.886 51.2-51.2s-22.886-51.2-51.2-51.2z"></path>
</symbol>
<symbol id="icon-map_pin" viewBox="0 0 1024 1024">
	<title>map_pin</title>
	<path class="path1" d="M507.996 65.004q-74.004 0-141.005 28.498t-114.504 76.503-76.001 114.002-28.498 138.998q0 59.996 45.998 141.005t99 141.005l3 10.004h-3q9.001 10.004 19.999 24.003t22.497 29 23.501 30.996 23.501 31.498 21.996 30.003 19.497 27.505 15.503 21.996 10.496 15.002l4.997 6.001q21.002 27.003 53.002 27.003 30.996 0 53.002-27.003 39.004-48.998 65.004-84.5t33.997-47.002 18.002-26.501q15.002-22.999 45.005-57.999 13.998-16.005 31.498-39.004t48.005-68.004 50.995-94.996 20.5-89.999q0-97.004-48.998-179.497t-133.499-130.499-183.501-48.005zM679.004 679.004q-21.996 25.999-30.996 37.499t-18.002 26.501q-9.001 13.998-16.998 25.498t-33.495 45.998-63.498 82.504q-4.004 4.997-9.001 4.997-1.997 0-4.495-1.004t-3.502-3q-108.001-152.003-164.997-219.003-48.005-56.003-91.003-131.502t-42.998-124.498q0-125 90.501-213.504t217.999-88.504 217.999 88.504 90.501 213.504q0 47.002-41.503 120.003t-96.502 135.997zM507.996 230.001q-70.001 0-120.003 48.497t-50.002 117.504q0 22.999 6.502 44.503t17.5 39.496 26.501 33.495 33.997 25.999 40.499 16.497 45.005 6.001q70.001 0 120.003-48.497t50.002-117.504q0-33.997-13.496-64.502t-36.495-53.002-53.996-35.502-65.997-13.005zM507.996 505.999q-47.002 0-80.005-32t-33.004-77.998 33.004-77.998 80.005-32q30.996 0 56.996 14.5t41.001 39.997 15.002 55.501q0 59.003-50.002 91.996-29 18.002-62.996 18.002z"></path>
</symbol>
<symbol id="icon-menu_list" viewBox="0 0 1024 1024">
	<title>menu_list</title>
	<path class="path1" d="M931 544h-580.004q-13.005 0-22.497-9.503t-9.503-22.497 9.503-22.497 22.497-9.503h580.004q7.004 0 12.503 2.499t10.004 7.004 7.004 10.004 2.499 12.503q0 24.003-22.999 30.996-4.997 1.004-9.001 1.004zM931 286.003h-580.004q-9.001 0-16.497-4.004t-11.5-11.5-4.004-16.497q0-13.005 9.503-22.497t22.497-9.503h580.004q13.005 0 22.497 9.503t9.503 22.999-9.503 22.497-22.497 9.001zM125 833.997q-25.999 0-45.005-18.504t-18.995-45.496 18.995-45.998 45.005-18.995q18.002 0 32.502 9.001t23.501 23.501 9.001 32.502q0 39.004-36.004 56.996-13.998 7.004-29 7.004zM125 576q-25.999 0-45.005-18.504t-18.995-45.496 18.995-45.496 45.496-18.504 45.496 18.504 18.995 45.496q0 18.002-9.001 32.502t-23.501 22.999-32.502 8.499zM125.501 318.996q-17.5 0-32.502-9.001t-23.501-23.501-8.499-32.502q0-27.003 18.995-45.496t45.005-18.504q18.002 0 32.502 8.499t23.501 23.501 9.001 32.502-9.001 32-23.501 23.501-32 9.001zM350.996 737.997h580.004q13.005 0 22.497 9.001t9.503 22.999q0 9.001-4.004 16.005t-11.5 11.5-16.497 4.495h-580.004q-13.005 0-22.497-9.503t-9.503-22.497q0-9.001 4.004-16.497t11.5-11.5 16.497-4.004z"></path>
</symbol>
<symbol id="icon-refresh" viewBox="0 0 1024 1024">
	<title>refresh</title>
	<path class="path1" d="M871.997 902.001h-144.005q102.001-59.996 164.997-162.499t62.996-222.505q0-73.001-21.996-141.005t-62.996-123.505-95.498-97.004-122.501-64.502-141.998-22.999q-12.001 0-19.999 7.997t-7.997 19.999q0 7.004 4.004 13.496t10.004 10.004 13.998 3.502q109.005 1.004 198.502 53.996t140.001 143.002 50.504 196.997q0 80.005-33.495 153.498t-89.498 126.996-126.996 81.5v-199.004q0-12.001-7.997-19.999t-19.999-7.997q-7.004 0-13.496 3.502t-10.496 10.004-4.004 14.5v277.996h277.996q12.001 0 19.999-8.499t7.997-19.497q0-7.997-3.502-14.5t-10.004-10.004-14.5-3.502zM510.996 902.001q-109.005 0-198.502-53.504t-140.001-143.503-50.504-196.004q0-120.996 70.502-219.996t179.497-143.002v199.997q0 4.004 1.495 8.499t4.004 7.997 6.001 6.001 7.496 4.004 9.001 1.495q27.996 0 27.996-27.996v-277.996h-278.999q-10.998 0-18.995 7.997t-7.997 19.497 7.997 19.497 18.995 7.997h138.998q-65.004 39.997-114.504 98.499t-78.5 133.499-29 153.999q0 120.996 58.501 224t161.004 164.004 225.495 61q10.998 0 19.497-8.499t8.499-19.497q0-4.004-1.004-7.496t-3-6.502-4.495-5.499-5.499-4.495-6.502-3-7.496-1.004z"></path>
</symbol>
<symbol id="icon-sad" viewBox="0 0 1024 1024">
	<title>sad</title>
	<path class="path1" d="M512 1024c282.77 0 512-229.23 512-512s-229.23-512-512-512-512 229.23-512 512 229.23 512 512 512zM512 96c229.75 0 416 186.25 416 416s-186.25 416-416 416-416-186.25-416-416 186.25-416 416-416zM256 320c0-35.346 28.654-64 64-64s64 28.654 64 64c0 35.346-28.654 64-64 64s-64-28.654-64-64zM640 320c0-35.346 28.654-64 64-64s64 28.654 64 64c0 35.346-28.654 64-64 64s-64-28.654-64-64zM319.902 780.74l-82.328-49.396c55.962-93.070 157.916-155.344 274.426-155.344 116.508 0 218.462 62.274 274.426 155.344l-82.328 49.396c-39.174-65.148-110.542-108.74-192.098-108.74-81.558 0-152.924 43.592-192.098 108.74z"></path>
</symbol>
<symbol id="icon-setting" viewBox="0 0 1024 1024">
	<title>setting</title>
	<path class="path1" d="M848.005 624.998q22.999 0 43.5-9.001t35.502-24.003 24.003-36.004 9.001-42.998q0-47.002-32.502-79.503t-79.503-32.502h-18.995q-6.001-16.998-13.998-33.004l13.998-13.998q16.005-16.005 24.504-36.004t8.499-42.998q0-45.998-33.004-79.002t-79.002-33.004q-22.999 0-43.5 8.499t-35.502 24.504l-13.998 13.998q-16.005-7.997-33.004-13.998v-18.995q0-22.999-9.001-44.001t-24.003-36.004-35.502-23.501-43.5-8.499q-45.998 0-79.002 32.502t-33.004 79.503v18.995q-16.005 6.001-33.004 13.998l-13.005-13.998q-16.005-16.005-36.495-24.504t-42.496-8.499q-47.002 0-80.005 33.004-7.004 7.997-13.496 16.998t-10.496 18.995-6.001 21.002-1.997 21.996q0 22.999 8.499 42.998t23.501 36.004l13.998 13.998q-7.997 16.998-13.005 33.004h-19.999q-18.002 0-35 5.499t-30.996 16.005-24.003 24.003-16.005 30.505-6.001 36.004q0 30.003 15.002 56.003t41.001 41.001 56.003 15.002h19.999l6.001 16.005q3 7.997 7.004 16.005l-13.998 13.998q-15.002 16.005-23.501 36.495t-8.499 42.496q0 47.002 32.502 79.503t79.002 32.502 79.503-33.004l13.005-13.005q7.997 3 16.497 6.502t16.497 6.502v19.999q0 45.998 33.004 79.002t79.503 33.004 79.002-33.004 32.502-79.002v-19.999q16.998-6.001 33.004-13.005l13.998 13.005q15.002 16.005 35.502 24.504t43.5 8.499q45.998 0 79.002-33.004 16.005-15.002 24.504-35.502t8.499-43.5q0-45.998-33.004-79.002l-13.998-13.998q4.004-7.997 7.496-16.005t6.502-16.005h18.995zM789.002 711.004q16.998 16.005 16.998 39.496t-16.998 39.496q-15.002 16.005-39.004 16.005t-39.997-16.005l-42.998-42.998-18.002 10.004q-13.998 7.997-29.501 13.998t-30.505 10.998l-21.002 6.001v61q0 22.999-16.497 39.496t-39.496 16.497-39.496-16.497-16.497-39.496v-61l-19.999-6.001q-16.005-4.997-30.996-10.998t-29-13.998l-18.995-10.004-42.998 42.998q-16.005 16.005-39.496 16.005t-39.496-16.005-16.005-39.496 16.005-39.496l42.998-42.998-10.004-18.995q-16.005-27.996-24.996-59.996l-6.001-19.999h-61q-22.999 0-39.496-16.497t-16.497-39.997 16.497-39.496 39.496-16.005h61l6.001-21.002q9.001-32 24.996-59.996l10.004-18.002-42.998-42.998q-16.005-16.998-16.005-39.997t16.005-39.997q7.997-7.004 18.504-10.998t21.002-4.004 21.002 4.004 18.504 10.998l42.998 44.001 18.995-10.998q13.998-7.997 29-13.998t30.996-10.998l19.999-4.997v-61q0-24.003 16.497-39.997t39.496-16.005 39.496 16.005 16.497 39.997v61l21.002 4.997q32 10.004 59.996 24.996l18.002 10.998 42.998-44.001q16.005-15.002 39.997-15.002t39.004 15.002q7.997 7.997 12.503 18.504t4.495 21.504q0 22.999-16.998 39.997l-42.998 42.998 10.998 18.002q7.004 13.998 13.496 29t10.496 30.996l6.001 21.002h61q22.999 0 39.496 16.005t16.497 39.496-16.497 39.997-39.496 16.497h-61l-6.001 19.999q-9.001 32-24.003 59.996l-10.998 18.995zM512 344.996q-27.003 0-52.5 8.499t-46.5 24.003-36.495 36.004-24.003 45.998-8.499 53.504q0 68.997 49.5 118.497t118.999 49.5 118.497-49.5 48.998-118.497q0-45.998-22.497-84.5t-61-61-84.5-22.497zM512.502 624.998q-30.505 0-56.504-15.002t-41.001-41.001-15.002-56.003q0-47.002 33.004-79.503t79.002-32.502q18.002 0 35.502 5.499t30.996 16.005 24.003 24.003 16.005 30.505 5.499 36.004q0 30.003-15.002 56.003t-40.499 41.001-56.003 15.002z"></path>
</symbol>
<symbol id="icon-smiley" viewBox="0 0 1024 1024">
	<title>smiley</title>
	<path class="path1" d="M512 958.003q-89.999 0-172.503-35.502t-142.5-94.996-95.498-141.998-35.502-173.496 35.502-173.496 95.498-141.998 142.5-94.996 173.005-35.502 173.005 35.502 141.998 94.996 94.996 141.998 35.502 173.496q0 169.001-112.998 295.997-109.005 121.999-269.998 144.998-30.996 4.997-62.996 4.997zM512 129.997q-103.004 0-191.498 50.995t-139.5 138.998-50.995 192 50.995 192 139.5 138.998 191.498 50.995q77.998 0 148.5-30.505t121.999-81.5 81.5-121.498 30.003-148.5-30.003-148.5-81.5-121.498-121.999-81.5-148.5-30.505zM513.004 772.004q-65.997 0-125-29t-100.997-80.998q-7.997-10.004-6.001-23.501t12.001-21.504 22.999-6.502 21.996 12.503q32 41.001 77.496 62.996t97.495 21.996q53.002 0 99-22.497t77.998-64.502q7.997-10.004 21.002-12.001t23.501 6.001 12.503 21.504-6.001 23.501q-74.998 97.004-196.004 109.998-16.005 1.997-32 1.997zM370.002 515q-19.999 0-33.997-13.998t-13.998-33.997v-62.996q0-19.999 13.998-33.997t33.997-13.998q4.997 0 9.503 1.004t9.001 3 8.499 4.495 7.004 5.499 5.499 7.004 4.495 7.997 3 9.001 1.004 10.004v62.996q0 19.999-13.998 33.997t-33.997 13.998zM656.998 515q-19.999 0-33.997-13.998t-13.998-33.997v-62.996q0-19.999 13.998-33.997t33.997-13.998q4.004 0 7.997 1.004l7.997 1.997q4.004 1.004 7.496 3.502t6.502 4.997 6.001 5.499 4.997 6.502 3.502 7.496 1.997 7.997 0.502 9.001v62.996q0 13.005-6.001 24.003t-16.998 17.5-24.003 6.502z"></path>
</symbol>
<symbol id="icon-spinner" viewBox="0 0 1024 1024">
	<title>spinner</title>
	<path class="path1" d="M486.001 1024q-94.996 0-162.499-67.502t-67.502-162.499v-615.004q0-48.005 24.003-89.498t65.495-65.495 89.999-24.003 89.498 24.003 65.004 65.495 24.003 89.498v562.995q0 53.002-37.499 90.501t-90.501 37.499-90.501-37.499-37.499-90.501v-306.995q0-10.004 7.496-17.5t18.504-7.496q7.004 0 13.005 3t9.503 9.001 3.502 13.005v306.995q0 32 22.497 54.497t53.996 22.497 53.996-22.497 22.497-54.497v-562.995q0-53.002-37.499-90.501t-90.501-37.499-90.501 37.499-37.499 90.501v615.004q0 74.004 52.5 126.505t126.505 52.5q48.998 0 90.501-24.003t65.495-65.495 24.003-89.498v-359.004q0-4.997 1.997-9.503t5.499-7.997 7.997-5.499 9.503-1.997q10.998 0 18.504 7.496t7.496 17.5v359.004q0 94.996-67.502 162.499t-162.499 67.502h-1.004z"></path>
</symbol>
<symbol id="icon-star" viewBox="0 0 1024 1024">
	<title>star</title>
	<path class="path1" d="M739 637l53.996 329.001-280.996-155.003-280.996 155.003 53.996-329.001-227-231.997 312.996-47.002 141.005-300.001 141.005 300.001 312.996 47.002zM618.004 408.003l-106.004-227-106.998 227-245.002 30.996 181.996 185.999-41.001 237.998 210.995-117.996 208.005 118.999-38.001-237.998 179.999-184.003z"></path>
</symbol>
<symbol id="icon-telephone" viewBox="0 0 1024 1024">
	<title>telephone</title>
	<path class="path1" d="M928 170.004l-82.002-80.998q-16.998-16.998-41.001-16.998t-41.001 16.998l-121.999 163q-33.004 48.005 0 80.998l50.002 50.002q-65.997 88.003-132.004 153.999-74.998 74.998-176.998 149.996l-48.005-48.005q-33.004-33.004-82.002 0l-164.004 123.003q-18.995 15.002-18.002 39.004t18.002 42.004l82.002 82.002q56.003 54.999 164.004 0 7.004-4.004 19.999-12.001t52.5-33.495 77.998-53.504 89.999-70.502 94.505-86.497q41.001-39.997 82.504-89.498t71.496-91.505 54.497-77.998 37.499-56.003l12.001-21.002q7.004-19.999 8.499-24.003t7.496-21.504 6.502-22.999 3-19.497 0.502-21.002-4.004-18.002-7.997-19.497-13.998-16.497zM889.999 292.004q-36.004 68.997-106.496 162.499t-138.496 164.495q-96 103.997-336.998 257.997-7.004 4.004-10.998 7.004-13.998 7.997-44.503 7.496t-41.503-11.5l-51.999-51.999q-19.999-33.997 0-51.999l105.001-77.005q30.996-21.002 51.999 0l64 62.996q268.001-187.996 390.001-385.004l-65.997-65.997q-21.002-21.002 0-51.999l77.998-103.997q3-3 6.001-5.499t6.502-4.004 7.004-2.499 7.004-0.502 7.004 1.495 6.502 2.499 6.502 4.004 5.499 4.495l51.999 51.999q13.998 16.998 13.998 42.004t-10.004 42.998z"></path>
</symbol>
<symbol id="icon-time" viewBox="0 0 1024 1024">
	<title>time</title>
	<path class="path1" d="M815.002 246.999l25.999-24.996q1.997-3 3.502-5.499t2.499-5.499l38.001 39.004q4.997 4.004 10.004 6.001t10.004 1.997q12.001 0 19.999-8.499t7.997-19.999-7.997-19.497l-112.005-112.998q-9.001-7.997-20.5-7.997t-19.497 8.499-7.997 19.999 7.997 19.497l38.001 38.001q-3 1.997-5.499 3.502t-4.495 3.502l-27.003 27.003q-19.999-15.002-41.001-28.498t-44.001-24.003-47.503-18.504-50.002-12.503-51.497-6.502v-30.003q0-10.998-8.499-19.497t-19.497-8.499q-7.997 0-14.5 4.004t-10.496 10.496-4.004 13.496v30.003q-64 4.004-124.498 27.505t-109.005 62.505-84.5 89.498-55.501 112.497-19.497 128q0 114.995 56.504 211.999t153.498 153.498 211.999 56.504q68.004 0 132.495-21.504t116.5-60.498 91.003-90.501 59.996-115.999 21.002-133.499q0-33.004-4.997-65.997t-15.002-63.498-24.504-59.505-33.004-54.497-40.499-48.497zM512 905.001q-100.004 0-184.003-48.998t-132.997-133.499-48.998-183.501 48.998-182.999 132.997-132.997 184.003-48.998q74.004 0 141.496 29t116.5 77.998 77.998 116.5 29 141.496q0 50.002-13.005 97.495t-36.495 87.501-57.498 73.503-74.004 57.498-87.501 36.997-96.502 13.005zM539.996 460.001v-202.004q0-7.997-4.004-14.5t-10.496-10.004-13.998-3.502-13.998 3.502-10.496 10.004-4.004 14.5v202.004q-24.003 9.001-39.997 30.505t-16.005 48.497q0 16.998 7.004 33.004t18.002 27.003 26.501 18.002 33.495 7.004q33.997 0 59.003-24.996t24.996-59.996q0-18.002-7.496-33.997t-19.999-27.505-28.498-17.5zM539.996 566.999h-56.996v-56.003h56.996v56.003z"></path>
</symbol>
<symbol id="icon-trash" viewBox="0 0 1024 1024">
	<title>trash</title>
	<path class="path1" d="M344.003 790.999q12.001 0 19.999-7.997t7.997-19.999v-306.002q0-7.997-3.502-14.5t-10.004-10.004-14.5-3.502q-4.997 0-10.496 1.997t-9.001 6.001-5.499 9.001-1.997 10.998v306.002q0 6.001 1.997 10.998t5.499 9.001 9.001 6.001 10.496 1.997zM512 790.999q7.004 0 13.496-3.502t10.496-10.004 4.004-14.5v-306.002q0-6.001-2.499-10.998t-6.001-9.001-8.499-6.001-10.998-1.997q-12.001 0-19.999 7.997t-7.997 19.999v306.002q0 6.001 1.997 10.998t6.001 9.001 9.001 6.001 10.998 1.997zM679.496 790.999q11.5 0 19.497-7.997t7.997-19.999v-306.002q0-6.001-1.997-10.998t-6.001-9.001-9.001-6.001-10.998-1.997q-10.998 0-19.497 7.997t-8.499 19.999v306.002q0 12.001 8.499 19.999t19.999 7.997zM818.995 149.996h-115.999q-9.001-36.997-39.004-60.498t-68.004-23.501h-167.997q-13.005 0-24.996 3t-22.999 7.997-20.5 12.503-16.998 16.998-13.005 20.5-8.499 22.999h-115.999q-30.003 0-56.003 15.002t-41.001 40.499-15.002 55.501v27.996h27.996v27.996h56.003v530.002q0 45.998 32.502 79.002t79.503 33.004h446.003q45.998 0 79.002-33.004t33.004-79.002v-530.002h54.999v-27.996h27.996v-27.996q0-45.998-32.502-78.5t-78.5-32.502zM428.001 121.999h167.997q30.996 0 48.005 27.996h-263.997q16.005-27.996 48.005-27.996zM790.999 847.002q0 15.002-7.496 27.996t-20.5 20.5-27.996 7.496h-446.003q-24.003 0-42.004-16.497t-18.002-39.496l4.004-530.002h557.998v530.002zM149.002 260.997q0-15.002 7.496-27.996t20.5-20.5 27.996-7.496h614.001q22.999 0 39.496 16.497t16.497 39.496h-725.996z"></path>
</symbol>
<symbol id="icon-user" viewBox="0 0 1024 1024">
	<title>user</title>
	<path class="path1" d="M679.997 513.004q48.998-36.004 77.005-90.501t27.996-117.504q0-106.004-75.5-181.996t-182.497-76.001q-51.999 0-100.004 20.5t-82.504 54.999-54.999 82.504-20.5 100.004q0 64 29 118.999t79.002 91.003q-198.001 71.004-269.005 275.999-27.996 82.995-29 152.003h64l10.998-59.996q42.998-181.002 167.004-265.001 88.003-59.003 205.998-59.003 225.997 0 329.001 202.004 47.002 91.003 54.999 181.996h64q0-7.004-0.502-18.995t-6.502-47.002-16.005-68.997-32-79.503-51.999-82.995-79.002-74.004-109.005-58.501v0zM333.005 304.998q0-80.005 56.996-137.001t137.001-56.996q39.997 0 76.001 15.503t62.003 41.503 41.001 62.003 15.002 74.998q0 80.998-56.504 137.503t-137.001 56.504-137.503-56.504-56.996-137.503z"></path>
</symbol>
<symbol id="icon-usergroup" viewBox="0 0 1024 1024">
	<title>usergroup</title>
	<path class="path1" d="M633.663 258.535q0-104.955-74.255-179.21t-179.21-74.255-179.21 74.255-74.255 179.21 74.255 179.21 179.21 74.255 179.21-74.255 74.255-179.21zM380.198 448.634q-81.19 0-135.645-54.454t-54.454-135.645 54.454-135.645 135.645-54.454 135.645 54.454 54.454 135.645-54.454 135.645-135.645 54.454zM380.198 512q-157.422 0-268.815 92.079t-111.383 224.753q0 43.566 12.876 75.746t40.098 52.477 57.922 33.163 78.716 18.807 89.108 7.918 101.488 1.977 101.488-1.977 89.108-7.918 78.716-18.807 57.922-33.163 40.098-52.477 12.876-75.746q0-132.674-111.383-224.753t-268.815-92.079zM380.198 955.564h-40.595q-29.706 0.994-57.425 0.497t-52.477-1.48-47.033-4.451-40.595-9.409-33.163-15.35-24.748-22.275-15.35-31.683-5.444-42.572q0-104.955 92.079-179.21t224.753-74.255 224.753 74.255 92.079 179.21q0 31.683-7.918 53.958t-30.69 36.134-38.618 21.778-58.915 10.889-62.87 3.467-77.226 0.497h-40.595zM887.129 321.901q0-81.19-54.454-135.645t-135.645-54.454h-7.918q-1.977 0-6.438 0.497t-6.935 0.994-5.444 2.474l-4.948 1.977q15.847 23.765 25.742 63.366h5.941q34.654 0 63.863 17.327t46.039 46.536 16.83 62.87q0 52.477-37.128 89.605t-89.605 37.128q-9.905 0-19.304-0.994t-18.32-3.467-16.83-5.941-14.853-8.415q-3.964 1.977-28.713 24.748-8.912 8.912-15.847 13.859 47.53 37.624 113.857 37.624 81.19 0 135.645-54.454t54.454-135.645zM697.030 512q-63.366 0-120.791 18.807 62.373 20.794 101.984 44.559h24.748q105.938 0 179.707 54.951t73.758 135.148q0 49.507-36.134 79.7t-96.53 41.092q-10.889 41.589-37.624 69.308 105.938-9.905 169.802-55.945t63.863-128.213q-3.964-108.909-97.027-184.158t-225.746-75.249z"></path>
</symbol>
<symbol id="icon-zoomglass" viewBox="0 0 1024 1024">
	<title>zoomglass</title>
	<path class="path1" d="M952.003 912.998l-237.998-208.998q50.002-51.999 77.998-119.501t27.996-142.5q0-102.001-50.504-189t-138.004-137.503-189.501-50.504q-44.001 0-86.497 9.503t-80.005 28.498-70.001 44.503-58.501 58.501-44.503 70.502-28.498 79.503-10.004 85.996q0 77.005 30.003 146.995t80.497 120.996 120.504 80.497 146.995 29.501q128 0 231.004-79.002l239.002 210.995q7.997 7.997 19.497 7.997t19.999-7.997 8.499-19.497-7.997-19.497zM120.003 442.501q0-65.495 25.498-125t68.495-102.502 102.502-68.495 125.501-25.498q86.999 0 161.495 42.998t117.504 117.002 42.998 161.004q0 65.997-25.498 125.501t-68.997 102.502-103.004 68.495-125 25.498-125-25.498-102.502-68.495-68.495-102.502-25.498-125z"></path>
</symbol>
</defs>
</svg>
